<?xml version="1.0" encoding="iso-8859-1"?>
<!-- Uploaded to: SVG Repo, www.svgrepo.com, Generator: SVG Repo Mixer Tools -->
<!DOCTYPE svg PUBLIC "-//W3C//DTD SVG 1.1//EN" "http://www.w3.org/Graphics/SVG/1.1/DTD/svg11.dtd">
<svg fill="#000000" version="1.1" id="Capa_1" xmlns="http://www.w3.org/2000/svg" xmlns:xlink="http://www.w3.org/1999/xlink" 
	 width="800px" height="800px" viewBox="0 0 353.562 353.562"
	 xml:space="preserve">
<g>
	<g>
		<path d="M170.633,161.94V41.217c-32.792,1.472-62.597,14.622-85.322,35.398L170.633,161.94z M141.419,95.993
			c3.128-1.372,6.747,0.06,8.098,3.164l17.606,40.196c1.363,3.11-0.057,6.74-3.167,8.101c-0.805,0.354-1.642,0.517-2.459,0.517
			c-2.375,0-4.633-1.378-5.638-3.685l-17.606-40.196C136.889,100.986,138.309,97.356,141.419,95.993z"/>
		<path d="M182.931,41.217V161.94l85.322-85.325C245.524,55.839,215.723,42.688,182.931,41.217z M196.405,143.485
			c-0.948,2.432-3.272,3.912-5.734,3.912c-0.738,0-1.495-0.129-2.239-0.417c-3.165-1.237-4.727-4.804-3.483-7.968l15.973-40.88
			c1.237-3.165,4.792-4.72,7.975-3.486c3.158,1.237,4.726,4.804,3.482,7.972L196.405,143.485z"/>
		<path d="M176.782,0C79.297,0,0,79.306,0,176.781c0,97.481,79.296,176.781,176.781,176.781c97.482,0,176.781-79.3,176.781-176.781
			C353.562,79.306,274.264,0,176.782,0z M176.782,324.8c-40.743,0-77.693-16.549-104.483-43.271
			c-0.042-0.048-0.111-0.061-0.153-0.108s-0.061-0.114-0.105-0.156c-26.727-26.793-43.276-63.74-43.276-104.483
			c0-40.667,16.498-77.549,43.142-104.333c0.087-0.105,0.123-0.234,0.216-0.333c0.093-0.096,0.229-0.129,0.333-0.213
			C99.227,45.258,136.12,28.76,176.788,28.76c40.67,0,77.552,16.498,104.333,43.141c0.108,0.084,0.234,0.123,0.336,0.213
			c0.097,0.093,0.127,0.228,0.217,0.333c26.637,26.778,43.139,63.666,43.139,104.333C324.8,258.398,258.399,324.8,176.782,324.8z"/>
		<path d="M41.218,182.931c1.474,32.792,14.622,62.594,35.398,85.328l85.322-85.328H41.218z M144.308,197.702l-40.199,17.594
			c-0.808,0.36-1.643,0.517-2.462,0.517c-2.372,0-4.63-1.375-5.639-3.681c-1.363-3.11,0.057-6.737,3.167-8.101l40.202-17.595
			c3.128-1.368,6.747,0.061,8.098,3.165C148.842,192.718,147.421,196.333,144.308,197.702z"/>
		<path d="M170.633,312.346V191.625l-85.322,85.328C108.036,297.724,137.841,310.868,170.633,312.346z M157.137,210.12
			c1.234-3.158,4.789-4.738,7.968-3.482c3.167,1.236,4.729,4.804,3.486,7.968l-15.958,40.809c-0.946,2.433-3.27,3.909-5.729,3.909
			c-0.745,0-1.501-0.126-2.24-0.414c-3.165-1.237-4.729-4.804-3.485-7.969L157.137,210.12z"/>
		<path d="M312.34,170.633c-1.471-32.792-14.621-62.594-35.398-85.322l-85.315,85.322H312.34z M209.328,155.815l40.124-17.573
			c3.134-1.378,6.749,0.06,8.101,3.165c1.362,3.113-0.055,6.74-3.165,8.101l-40.124,17.573c-0.811,0.357-1.646,0.517-2.462,0.517
			c-2.378,0-4.636-1.378-5.645-3.684C204.8,160.803,206.224,157.173,209.328,155.815z"/>
		<path d="M182.931,312.346c32.792-1.466,62.594-14.622,85.322-35.398l-85.322-85.322V312.346z M189.645,206.145
			c3.134-1.369,6.749,0.061,8.1,3.165l17.576,40.136c1.357,3.11-0.06,6.737-3.17,8.101c-0.805,0.354-1.646,0.517-2.462,0.517
			c-2.372,0-4.624-1.382-5.633-3.688l-17.576-40.136C185.116,211.141,186.533,207.508,189.645,206.145z"/>
		<path d="M276.947,268.253c20.777-22.729,33.922-52.53,35.398-85.322h-120.72L276.947,268.253z M214.612,184.96l40.82,15.949
			c3.158,1.236,4.731,4.803,3.482,7.974c-0.942,2.427-3.267,3.909-5.729,3.909c-0.744,0-1.501-0.132-2.233-0.42l-40.82-15.949
			c-3.159-1.236-4.732-4.804-3.483-7.968C207.887,185.284,211.43,183.735,214.612,184.96z"/>
		<path d="M76.61,85.311c-20.777,22.728-33.924,52.53-35.398,85.322h120.721L76.61,85.311z M141.261,169.023
			c-0.745,0-1.501-0.129-2.24-0.417l-40.872-15.982c-3.167-1.237-4.729-4.804-3.486-7.968c1.237-3.162,4.795-4.735,7.969-3.489
			l40.872,15.981c3.167,1.237,4.729,4.804,3.486,7.969C146.043,167.54,143.72,169.023,141.261,169.023z"/>
	</g>
</g>
</svg>